<svg xmlns="http://www.w3.org/2000/svg" width="20.031" height="12.03" viewBox="0 0 20.031 12.03">
  <metadata><?xpacket begin="﻿" id="W5M0MpCehiHzreSzNTczkc9d"?>
<x:xmpmeta xmlns:x="adobe:ns:meta/" x:xmptk="Adobe XMP Core 5.6-c138 79.159824, 2016/09/14-01:09:01        ">
   <rdf:RDF xmlns:rdf="http://www.w3.org/1999/02/22-rdf-syntax-ns#">
      <rdf:Description rdf:about=""/>
   </rdf:RDF>
</x:xmpmeta>
                                                                                                    
                                                                                                    
                                                                                                    
                                                                                                    
                                                                                                    
                                                                                                    
                                                                                                    
                                                                                                    
                                                                                                    
                                                                                                    
                                                                                                    
                                                                                                    
                                                                                                    
                                                                                                    
                                                                                                    
                                                                                                    
                                                                                                    
                                                                                                    
                                                                                                    
                                                                                                    
                           
<?xpacket end="w"?></metadata>
<defs>
    <style>
      .cls-1 {
        fill: #fff;
        fill-rule: evenodd;
      }
    </style>
  </defs>
  <path id="ar_left" class="cls-1" d="M399,1164H383.321l3.392,3.39a0.954,0.954,0,0,1,0,1.35,0.943,0.943,0,0,1-1.351,0l-4.938-4.94a0.851,0.851,0,0,1-.137-0.09,0.869,0.869,0,0,1-.217-0.35,0.947,0.947,0,0,1,.187-1.07,0.856,0.856,0,0,1,.309-0.2l4.8-4.8a0.956,0.956,0,0,1,1.347,0,0.944,0.944,0,0,1,0,1.34l-3.366,3.37H399A1,1,0,0,1,399,1164Z" transform="translate(-379.969 -1157)"/>
</svg>
