<svg xmlns="http://www.w3.org/2000/svg" width="24" height="20" viewBox="0 0 24 20">
  <metadata><?xpacket begin="﻿" id="W5M0MpCehiHzreSzNTczkc9d"?>
<x:xmpmeta xmlns:x="adobe:ns:meta/" x:xmptk="Adobe XMP Core 5.6-c138 79.159824, 2016/09/14-01:09:01        ">
   <rdf:RDF xmlns:rdf="http://www.w3.org/1999/02/22-rdf-syntax-ns#">
      <rdf:Description rdf:about=""/>
   </rdf:RDF>
</x:xmpmeta>
                                                                                                    
                                                                                                    
                                                                                                    
                                                                                                    
                                                                                                    
                                                                                                    
                                                                                                    
                                                                                                    
                                                                                                    
                                                                                                    
                                                                                                    
                                                                                                    
                                                                                                    
                                                                                                    
                                                                                                    
                                                                                                    
                                                                                                    
                                                                                                    
                                                                                                    
                                                                                                    
                           
<?xpacket end="w"?></metadata>
<defs>
    <style>
      .cls-1 {
        fill: #6b6b6b;
        fill-rule: evenodd;
      }
    </style>
  </defs>
  <path id="chang_photo" class="cls-1" d="M405.625,478.182a0.75,0.75,0,1,1,.75.727A0.739,0.739,0,0,1,405.625,478.182Zm19.5,13.09H423.25a0.364,0.364,0,1,1,0-.727h1.875a1.11,1.11,0,0,0,1.125-1.091V476.727a1.11,1.11,0,0,0-1.125-1.091h-3a0.364,0.364,0,1,1,0-.727h0l-1.35-1.745a1.142,1.142,0,0,0-.9-0.437h-5.25a1.141,1.141,0,0,0-.9.437l-1.35,1.745h0a0.364,0.364,0,1,1,0,.727h-7.5a1.11,1.11,0,0,0-1.125,1.091v12.727a1.11,1.11,0,0,0,1.125,1.091h6a0.364,0.364,0,1,1,0,.727h-6A1.849,1.849,0,0,1,403,489.454V476.727a1.849,1.849,0,0,1,1.875-1.818h6.563l1.687-2.182a1.905,1.905,0,0,1,1.5-.727h5.25a1.905,1.905,0,0,1,1.5.727l1.687,2.182h2.063A1.849,1.849,0,0,1,427,476.727v12.727A1.849,1.849,0,0,1,425.125,491.272Zm-16.875-17.09H406a0.364,0.364,0,1,1,0-.728h2.25A0.364,0.364,0,1,1,408.25,474.182Zm9,6.472a4.067,4.067,0,0,0-1.6.325,0.379,0.379,0,0,1-.494-0.187,0.359,0.359,0,0,1,.193-0.479,4.824,4.824,0,0,1,1.9-.386,4.621,4.621,0,1,1-4.763,4.618,4.425,4.425,0,0,1,.562-2.16,0.379,0.379,0,0,1,.507-0.149,0.357,0.357,0,0,1,.154.492,3.734,3.734,0,0,0-.473,1.817A4.015,4.015,0,1,0,417.25,480.654Zm-6.453-.141a0.382,0.382,0,0,1,.519-0.107,0.356,0.356,0,0,1,.11.5,6.547,6.547,0,0,0-1.114,3.637,6.941,6.941,0,1,0,6.938-6.727,7.085,7.085,0,0,0-3.484.916,0.382,0.382,0,0,1-.513-0.131,0.359,0.359,0,0,1,.135-0.5,7.862,7.862,0,0,1,3.862-1.014,7.458,7.458,0,1,1-7.688,7.454A7.248,7.248,0,0,1,410.8,480.513Z" transform="translate(-403 -472)"/>
</svg>
