<svg id="clear_body" xmlns="http://www.w3.org/2000/svg" width="17" height="17" viewBox="0 0 17 17">
  <metadata><?xpacket begin="﻿" id="W5M0MpCehiHzreSzNTczkc9d"?>
<x:xmpmeta xmlns:x="adobe:ns:meta/" x:xmptk="Adobe XMP Core 5.6-c138 79.159824, 2016/09/14-01:09:01        ">
   <rdf:RDF xmlns:rdf="http://www.w3.org/1999/02/22-rdf-syntax-ns#">
      <rdf:Description rdf:about=""/>
   </rdf:RDF>
</x:xmpmeta>
                                                                                                    
                                                                                                    
                                                                                                    
                                                                                                    
                                                                                                    
                                                                                                    
                                                                                                    
                                                                                                    
                                                                                                    
                                                                                                    
                                                                                                    
                                                                                                    
                                                                                                    
                                                                                                    
                                                                                                    
                                                                                                    
                                                                                                    
                                                                                                    
                                                                                                    
                                                                                                    
                           
<?xpacket end="w"?></metadata>
<defs>
    <style>
      .cls-1 {
        fill: #fe0000;
      }

      .cls-2 {
        fill: #fff;
        fill-rule: evenodd;
      }
    </style>
  </defs>
  <circle class="cls-1" cx="8.5" cy="8.5" r="8.5"/>
  <path id="Rounded_Rectangle_3_copy_6" data-name="Rounded Rectangle 3 copy 6" class="cls-2" d="M590.863,752.893l-2.792,3.619,2.761,3.6a0.576,0.576,0,0,1,0,.748,0.432,0.432,0,0,1-.663,0l-2.688-3.5-2.689,3.5a0.432,0.432,0,0,1-.663,0,0.576,0.576,0,0,1,0-.748l2.777-3.616-2.777-3.6a0.576,0.576,0,0,1,0-.748,0.436,0.436,0,0,1,.667,0l2.7,3.5,2.7-3.5a0.436,0.436,0,0,1,.667,0A0.576,0.576,0,0,1,590.863,752.893Z" transform="translate(-579 -748)"/>
</svg>
