<svg id="Customer" xmlns="http://www.w3.org/2000/svg" width="39.97" height="53" viewBox="0 0 39.97 53">
  <metadata><?xpacket begin="﻿" id="W5M0MpCehiHzreSzNTczkc9d"?>
<x:xmpmeta xmlns:x="adobe:ns:meta/" x:xmptk="Adobe XMP Core 5.6-c138 79.159824, 2016/09/14-01:09:01        ">
   <rdf:RDF xmlns:rdf="http://www.w3.org/1999/02/22-rdf-syntax-ns#">
      <rdf:Description rdf:about=""/>
   </rdf:RDF>
</x:xmpmeta>
                                                                                                    
                                                                                                    
                                                                                                    
                                                                                                    
                                                                                                    
                                                                                                    
                                                                                                    
                                                                                                    
                                                                                                    
                                                                                                    
                                                                                                    
                                                                                                    
                                                                                                    
                                                                                                    
                                                                                                    
                                                                                                    
                                                                                                    
                                                                                                    
                                                                                                    
                                                                                                    
                           
<?xpacket end="w"?></metadata>
<defs>
    <style>
      .cls-1 {
        fill: #7fcba2;
      }

      .cls-1, .cls-2 {
        fill-rule: evenodd;
      }
    </style>
  </defs>
  <path class="cls-1" d="M1482,430l3,6-3,10,5,5,4-5-2-10,2-6h-9Z" transform="translate(-1467 -400)"/>
  <path class="cls-2" d="M1506.98,442.926a0.822,0.822,0,0,1-.83.782h-10.36v-1.629h9.55c-0.01-1.718-.2-5.852-1.66-8.141a16.408,16.408,0,0,0-7.81-5.945,19.475,19.475,0,0,1-3.84,2.341l-2.45,6.485,2.6,8.551a0.752,0.752,0,0,1-.11.694l-4.56,6.58a0.822,0.822,0,0,1-.67.355h-0.01a0.842,0.842,0,0,1-.67-0.341l-4.56-6.293a0.791,0.791,0,0,1-.13-0.681l2.33-8.705-2.18-6.7a19.336,19.336,0,0,1-3.68-2.273,17.418,17.418,0,0,0-7.76,6.124c-1.45,2.281-1.56,6.316-1.53,7.992h9.15v1.628h-9.95a0.808,0.808,0,0,1-.82-0.762c-0.02-.258-0.39-6.363,1.76-9.726a19.041,19.041,0,0,1,9.04-6.96,0.837,0.837,0,0,1,.82.163c0.04,0.034,3.97,3.45,8.13,3.45h0.2c4.16,0,8.13-3.418,8.17-3.453a0.835,0.835,0,0,1,.79-0.169c0.24,0.074,6,1.855,9.14,6.777C1507.22,436.425,1506.99,442.663,1506.98,442.926Zm-23.81,2.8,3.65,5.035,3.67-5.3L1488,437.3h-2.58Zm3.81-14.186h-0.2a11.05,11.05,0,0,1-3.18-.5l1.51,4.634h3.14l1.73-4.578A10.877,10.877,0,0,1,1486.98,431.543Zm-0.06-5.92a9.663,9.663,0,0,1-9.72-9.584v-6.461a9.716,9.716,0,0,1,19.43,0v6.461A9.655,9.655,0,0,1,1486.92,425.623Zm8.06-16.045c0-.08-0.01-0.158-0.01-0.238a6.792,6.792,0,0,1-3.35.961,11.675,11.675,0,0,1-4.08-.934c-3.24-1.239-4.87.013-4.88,0.026l-1.07-1.241c0.09-.079,2.35-1.908,6.55-0.3,3.33,1.27,4.52.962,6.58-.24a8.073,8.073,0,0,0-15.87,1.97v6.461a8.066,8.066,0,0,0,16.13,0v-6.461Z" transform="translate(-1467 -400)"/>
</svg>
