<svg xmlns="http://www.w3.org/2000/svg" width="20" height="18" viewBox="0 0 20 18">
  <metadata><?xpacket begin="﻿" id="W5M0MpCehiHzreSzNTczkc9d"?>
<x:xmpmeta xmlns:x="adobe:ns:meta/" x:xmptk="Adobe XMP Core 5.6-c138 79.159824, 2016/09/14-01:09:01        ">
   <rdf:RDF xmlns:rdf="http://www.w3.org/1999/02/22-rdf-syntax-ns#">
      <rdf:Description rdf:about=""/>
   </rdf:RDF>
</x:xmpmeta>
                                                                                                    
                                                                                                    
                                                                                                    
                                                                                                    
                                                                                                    
                                                                                                    
                                                                                                    
                                                                                                    
                                                                                                    
                                                                                                    
                                                                                                    
                                                                                                    
                                                                                                    
                                                                                                    
                                                                                                    
                                                                                                    
                                                                                                    
                                                                                                    
                                                                                                    
                                                                                                    
                           
<?xpacket end="w"?></metadata>
<defs>
    <style>
      .cls-1 {
        fill: #d0d0d0;
        fill-rule: evenodd;
      }
    </style>
  </defs>
  <path id="Favorites" class="cls-1" d="M1331.13,28.128l-5.51-.493a0.944,0.944,0,0,1-.79-0.554l-1.97-4.533a0.963,0.963,0,0,0-1.75,0l-1.96,4.533a0.931,0.931,0,0,1-.79.554l-5.51.493a0.9,0.9,0,0,0-.54,1.571l4.16,3.456a0.875,0.875,0,0,1,.29.883l-1.24,4.847a0.939,0.939,0,0,0,1.4.988l4.6-2.558a0.994,0.994,0,0,1,.96,0l4.59,2.558a0.941,0.941,0,0,0,1.41-.988l-1.24-4.847a0.9,0.9,0,0,1,.3-0.883l4.16-3.456A0.907,0.907,0,0,0,1331.13,28.128Z" transform="translate(-1312 -22)"/>
</svg>
