<svg width="580" height="124" xmlns="http://www.w3.org/2000/svg">
 <!-- Created with Method Draw - http://github.com/duopixel/Method-Draw/ -->

 <g>
  <title>background</title>
  <rect fill="none" id="canvas_background" height="126" width="582" y="-1" x="-1"/>
  <g display="none" overflow="visible" y="0" x="0" height="100%" width="100%" id="canvasGrid">
   <rect fill="url(#gridpattern)" stroke-width="0" y="2" x="2" height="400" width="580"/>
  </g>
 </g>
 <g>
  <title>Layer 1</title>
  <defs>
   <style type="text/css">
    <![CDATA[
    .fil1 {fill:#373435;fill-rule:nonzero}
    .fil0 {fill:#ED3237;fill-rule:nonzero}
   ]]>
   </style>
  </defs>
  <g stroke="null" id="svg_17">
   <g stroke="null" transform="matrix(1.225264317502706,0,0,1.2273919792633292,-4985.639788395389,-3454.230131046644) " id="svg_5">
    <metadata stroke="null" transform="translate(0,0.8147357702255249) translate(0,-0.8147357702255249) translate(0,-0.8147357702255249) translate(0,-0.8147357702255249) translate(0,-0.8147357702255249) translate(0,-0.8147357702255249) translate(0,-0.8147357702255249) translate(0.8161505460739136,0) translate(-0.8147357702255249,-4.547473508864641e-13) translate(-0.8147357702255249,-4.547473508864641e-13) translate(-2.444207191467285,23.627336502075195) translate(4.073678493499756,-104.28617858886719) translate(0,-0.8147357702255249) translate(0,-0.8147357702255249) translate(0,-0.8147357702255249) translate(0,-0.8147357702255249) translate(0,-0.8147357702255249) translate(0,-0.8147357702255249) translate(0,-0.8147357702255249) translate(0,-0.8147357702255249) translate(0,-0.8147357702255249) translate(0,-0.8147357702255249) translate(0,-0.8147357702255249) translate(0,-0.8147357702255249) translate(0,-0.8147357702255249) translate(0,-0.8147357702255249) translate(0,-0.8147357702255249) translate(0,-0.8147357702255249) translate(0,-0.8147357702255249) translate(0,-0.8147357702255249) translate(0,-0.8147357702255249) translate(0,-0.8147357702255249) translate(0,-0.8147357702255249) translate(0,-0.8147357702255249) translate(0,-0.8147357702255249) translate(0,-0.8147357702255249) translate(0,-0.8147357702255249) translate(0,-0.8147357702255249) translate(0,-0.8147357702255249) translate(-0.8147357702255249,-4.547473508864641e-13) translate(0,-0.8147357702255249) translate(-0.8147357702255249,-4.547473508864641e-13) translate(0,-0.8147357702255249) translate(0.8147357702255249,-4.547473508864641e-13) translate(0,-0.8147357702255249) translate(-0.8147357702255249,-4.547473508864641e-13) translate(0,-0.8147357702255249) translate(0,-0.8147357702255249) translate(0,-0.8147357702255249) translate(0,-0.8147357702255249) translate(0.8147357702255249,-4.547473508864641e-13) translate(0.8147357702255249,-4.547473508864641e-13) translate(0,-0.8147357702255249) translate(14.745600700378418,14.745600700378418) translate(14.745600700378418,14.745600700378418) translate(4020.224365234375,0) translate(0,2754.1201171875) " id="svg_6"/>
    <path stroke="null" id="svg_8" d="m4131.531717,2845.363046l-19,0l0,12c0,1 -1,3 -1,4c-1,1 -3,1 -4,1l-5,0c-4,0 -7,-1 -9,-4c-2,-4 -2,-8 -2,-11c0,-4 0,-8 2,-11c2,-3 6,-5 10,-5l26,0l0,-14l-34,0c-2,0 -10,0 -15,4c-8,6 -9,16 -9,26c0,8 1,19 7,24c4,4 10,5 15,5l29,0c2,0 4,0 6,-2c1,0 3,-3 3,-7l0,-22z" class="fil0"/>
    <path stroke="null" id="svg_9" d="m4161.531717,2831.363046c-7,0 -15,0 -20,4c-6,5 -6,14 -6,19c0,4 0,13 6,18c5,5 13,5 20,5c7,0 15,0 20,-5c6,-5 6,-14 6,-18c0,-5 0,-14 -6,-19c-5,-4 -13,-4 -20,-4zm-9,23c0,-5 1,-7 2,-8c0,-1 2,-3 7,-3c5,0 6,2 7,3c1,1 2,3 2,8c0,3 0,6 -2,8c-1,1 -3,3 -7,3c-5,0 -7,-3 -7,-3c-1,-1 -2,-3 -2,-8z" class="fil0"/>
    <path stroke="null" id="svg_10" d="m4208.531717,2876.363046l12,0c5,0 12,0 16,-6c3,-5 3,-14 3,-18c0,-4 0,-11 -4,-16c-5,-4 -11,-5 -14,-5l-20,0c-3,0 -5,0 -7,2c-2,2 -3,4 -3,7l0,51l17,0l0,-15zm0,-12l0,-19c0,0 0,-1 0,-1c1,0 1,-1 2,-1l6,0c1,0 4,1 6,4c0,2 0,4 0,7c0,3 0,5 -1,7c0,1 -2,3 -6,3l-7,0z" class="fil0"/>
    <path stroke="null" id="svg_11" d="m4245.531717,2831.363046l0,12l23,0c2,0 4,0 5,1c1,1 1,3 1,3l0,1l-20,0c-2,0 -5,0 -8,2c-3,3 -4,7 -4,11c0,4 1,10 4,13c2,2 6,2 8,2l27,0c2,0 5,0 8,-2c2,-2 2,-5 2,-7l0,-19c0,-4 -1,-9 -4,-13c-2,-2 -6,-4 -12,-4l-30,0zm29,28l0,3c0,0 0,1 -1,2c0,0 -1,0 -2,0l-9,0c-1,0 -2,0 -2,0c-1,-1 -1,-2 -1,-2c0,-1 0,-2 1,-3c1,0 2,0 2,0l12,0z" class="fil0"/>
    <path stroke="null" id="svg_12" d="m4296.531717,2876.363046l17,0l0,-21c0,-3 0,-6 2,-9c2,-3 5,-3 8,-3c5,0 9,0 14,0l0,19c0,4 2,9 6,11c4,3 10,3 14,3c14,0 29,0 44,0c2,0 5,0 7,-2c3,-2 4,-6 4,-9c0,-2 0,-6 -3,-9c-2,-3 -5,-5 -10,-6l-11,-4c-2,-1 -2,-1 -4,-1c0,0 -1,-1 -1,-1c0,-1 1,-1 1,-1c1,0 1,0 2,0l25,0l0,-12l-31,0c-4,0 -8,1 -10,5c-2,2 -2,5 -2,8c0,2 0,5 2,7c1,3 5,5 9,6l10,3c3,2 4,2 5,2c0,0 0,1 0,1c0,1 0,1 0,1c0,0 -1,0 -1,0c-10,0 -19,0 -29,0c-2,0 -5,0 -7,-2c-3,-2 -3,-6 -3,-9l0,-10l12,0l0,-12l-12,0l0,-14l-17,0l0,14c-6,0 -13,0 -19,0c-4,0 -12,0 -17,5c-5,4 -5,10 -5,14l0,26z" class="fil0"/>
    <polygon stroke="null" id="svg_13" points="4434.53125,2876.3647845983505 4434.53125,2861.3647845983505 4418.53125,2861.3647845983505 4418.53125,2876.3647845983505 " class="fil0"/>
    <path stroke="null" id="svg_14" d="m4443.531717,2831.363046l0,12l23,0c2,0 4,0 5,1c1,1 1,3 1,3l0,1l-20,0c-3,0 -5,0 -8,2c-3,3 -4,7 -4,11c0,4 0,10 4,13c2,2 5,2 8,2l27,0c2,0 5,0 7,-2c2,-2 3,-5 3,-7l0,-19c0,-4 -1,-9 -5,-13c-2,-2 -5,-4 -11,-4l-30,0zm29,28l0,3c0,0 0,1 -1,2c0,0 -2,0 -2,0l-9,0c-1,0 -2,0 -2,0c-1,-1 -1,-2 -1,-2c0,-1 0,-2 1,-3c0,0 2,0 2,0l12,0z" class="fil0"/>
    <path stroke="null" id="svg_15" d="m4539.531717,2876.363046l0,-12l-21,0c-3,0 -6,0 -8,-2c0,-1 -1,-2 -1,-3l25,0c1,0 3,-1 4,-2c3,-2 3,-5 3,-8c0,-5 0,-12 -5,-15c-3,-3 -9,-3 -18,-3c-9,0 -18,0 -22,4c-4,4 -3,11 -3,19c0,9 0,13 2,17c4,5 9,5 16,5l28,0zm-30,-28c0,-2 0,-4 2,-5c1,-1 4,-1 6,-1c1,0 3,0 4,1c3,0 3,1 3,3c0,0 0,2 -2,2l-13,0z" class="fil0"/>
    <path stroke="null" id="svg_16" d="m4247.531717,2893.363046c0,0 0,0 0,1l0,7c0,1 0,1 1,2c0,0 0,0 0,0c0,1 0,1 1,1c0,0 1,0 1,0l7,0c0,0 1,0 1,0c1,0 1,0 1,-1c0,0 1,0 1,0c0,-1 0,-1 0,-2l0,-7c0,-1 0,-1 0,-1l3,0c0,0 0,0 0,1l0,8c0,1 0,2 0,3c0,0 0,1 -1,1c0,1 -1,1 -2,1c-1,0 -2,0 -3,0l-7,0c-1,0 -2,0 -3,0c-1,0 -1,0 -2,-1c0,0 -1,-1 -1,-1c0,-1 0,-2 0,-3l0,-8c0,-1 0,-1 0,-1l3,0zm36,0c1,0 1,0 1,0l0,3c0,0 0,0 -1,0l-12,0c0,0 0,0 -1,0c0,1 0,1 0,1l0,1c0,0 0,0 0,0c1,1 1,1 1,1l9,0c2,0 3,0 3,1c1,0 1,1 1,2l0,2c0,0 0,1 0,1c0,1 0,1 -1,1c0,1 0,1 -1,1c0,0 -1,0 -2,0l-13,0c0,0 -1,0 -1,0l0,-2c0,-1 1,-1 1,-1l12,0c1,0 1,0 1,0c1,0 1,0 1,-1l0,-1c0,0 0,0 -1,0c0,-1 0,-1 -1,-1l-9,0c-1,0 -2,0 -3,-1c0,0 -1,-1 -1,-2l0,-1c0,-1 0,-1 1,-2c0,0 0,-1 0,-1c1,0 1,-1 2,-1c0,0 1,0 1,0l13,0zm18,0c0,0 1,0 2,0c0,0 1,1 1,1c0,0 1,1 1,1c0,1 0,2 0,2l0,3c0,0 0,1 0,1c-1,0 -1,0 -1,0l-14,0l0,1c0,1 1,1 1,2c0,0 1,0 2,0l11,0c0,0 1,0 1,1l0,2c0,0 -1,0 -1,0l-11,0c-1,0 -2,0 -3,0c-1,0 -2,0 -2,-1c-1,0 -1,-1 -1,-1c0,-1 0,-2 0,-3l0,-4c0,-1 0,-1 0,-2c0,-1 0,-1 1,-2c0,0 1,0 2,-1c1,0 2,0 3,0l8,0zm-11,6l11,0c0,0 0,0 0,0l0,-2c0,0 0,-1 0,-1c0,0 -1,0 -1,0l-7,0c-1,0 -2,0 -2,0c0,1 -1,1 -1,2l0,1zm34,-6l0,-5c0,0 0,0 0,0l3,0c0,0 0,0 0,0l0,14c0,1 0,2 0,3c0,0 0,1 -1,1c0,1 -1,1 -2,1c-1,0 -2,0 -3,0l-7,0c-1,0 -2,0 -3,0c-1,0 -2,0 -2,-1c-1,0 -1,-1 -1,-1c0,-1 0,-2 0,-3l0,-4c0,-1 0,-1 0,-2c0,-1 0,-1 1,-2c0,0 1,0 2,-1c1,0 2,0 3,0l10,0zm-3,11c0,0 1,0 1,0c1,0 1,0 1,0c0,-1 0,-1 1,-1c0,-1 0,-1 0,-2l0,-5l-10,0c0,0 -1,0 -1,0c-1,0 -1,1 -1,1c0,0 0,0 -1,1c0,0 0,0 0,1l0,2c0,1 0,1 0,2c1,0 1,0 1,1c0,0 0,0 1,0c0,0 1,0 1,0l7,0zm35,-11c0,0 0,0 0,0l0,3c0,0 0,0 0,0l-12,0c0,0 -1,0 -1,0c0,1 0,1 0,1l0,1c0,0 0,0 0,0c0,1 1,1 1,1l9,0c1,0 3,0 3,1c1,0 1,1 1,2l0,2c0,0 0,1 0,1c0,1 0,1 -1,1c0,1 -1,1 -1,1c-1,0 -1,0 -2,0l-13,0c-1,0 -1,0 -1,0l0,-2c0,-1 0,-1 1,-1l12,0c1,0 1,0 1,0c0,0 0,0 0,-1l0,-1c0,0 0,0 0,0c0,-1 0,-1 -1,-1l-9,0c-1,0 -2,0 -3,-1c-1,0 -1,-1 -1,-2l0,-1c0,-1 0,-1 0,-2c0,0 1,-1 1,-1c0,0 1,-1 1,-1c1,0 1,0 2,0l13,0zm17,0c2,0 3,0 3,0c1,1 2,1 2,1c1,1 1,1 1,2c1,1 1,1 1,2l0,4c0,1 0,2 -1,3c0,0 0,1 -1,1c0,1 -1,1 -2,1c0,0 -1,0 -3,0l-9,0l0,6c0,0 -1,0 -1,0l-3,0c0,0 0,0 0,0l0,-15c0,-1 0,-1 0,-2c0,-1 1,-1 1,-2c1,0 1,0 2,-1c1,0 2,0 3,0l7,0zm-9,11l9,0c1,0 1,0 1,0c1,0 1,0 1,0c1,-1 1,-1 1,-1c0,-1 0,-1 0,-2l0,-2c0,-1 0,-1 0,-1c0,-1 0,-1 -1,-1c0,0 0,-1 -1,-1c0,0 0,0 -1,0l-7,0c0,0 -1,0 -1,0c0,0 -1,1 -1,1c0,0 0,0 0,1c0,0 0,0 0,1l0,5zm30,-11c1,0 2,0 3,0c1,1 2,1 2,1c1,1 1,1 1,2c0,1 1,1 1,2l0,7c0,1 0,1 -1,1c0,1 0,1 0,1c0,0 0,0 0,0c-1,0 -1,0 -1,0l-13,0c-1,0 -1,0 -2,0c0,0 -1,0 -1,-1c0,0 -1,0 -1,-1c0,0 0,-1 0,-1l0,-2c0,0 0,-1 0,-1c0,0 1,-1 1,-1c0,0 1,-1 1,-1c1,0 1,0 2,0l11,0l0,-1c0,0 0,0 0,-1c0,0 -1,0 -1,0c0,0 0,-1 -1,-1c0,0 0,0 -1,0l-11,0c0,0 0,0 0,0l0,-3c0,0 0,0 0,0l11,0zm2,11c0,0 1,0 1,0c0,0 0,0 0,0l0,-3l-10,0c0,0 -1,0 -1,1c0,0 0,0 0,1l0,0c0,1 0,1 0,1c0,0 1,0 1,0l9,0zm21,-11c0,0 0,0 0,0l0,3c0,0 0,0 0,0l-7,0c-1,0 -1,0 -2,0c0,0 0,1 0,1c-1,0 -1,0 -1,1c0,0 0,0 0,1l0,8c0,0 0,0 -1,0l-2,0c-1,0 -1,0 -1,0l0,-9c0,-1 0,-1 1,-2c0,-1 0,-1 1,-2c0,0 1,0 2,-1c0,0 1,0 3,0l7,0zm16,0c1,0 1,0 2,0c1,0 1,1 1,1c1,0 1,1 1,1c0,1 0,2 0,2l0,3c0,0 0,1 0,1c0,0 -1,0 -1,0l-13,0l0,1c0,1 0,1 0,2c1,0 1,0 2,0l11,0c1,0 1,0 1,1l0,2c0,0 0,0 -1,0l-11,0c-1,0 -2,0 -3,0c-1,0 -1,0 -2,-1c0,0 -1,-1 -1,-1c0,-1 0,-2 0,-3l0,-4c0,-1 0,-1 0,-2c0,-1 1,-1 1,-2c1,0 1,0 2,-1c1,0 2,0 3,0l8,0zm-10,6l10,0c0,0 1,0 1,0l0,-2c0,0 -1,-1 -1,-1c0,0 0,0 -1,0l-7,0c-1,0 -1,0 -2,0c0,1 0,1 0,2l0,1zm39,-6c1,0 2,0 3,0c1,1 2,1 2,1c1,1 1,1 1,2c0,1 1,1 1,2l0,4c0,1 -1,2 -1,3c0,0 0,1 -1,1c0,1 -1,1 -2,1c-1,0 -2,0 -3,0l-10,0l0,6c0,0 0,0 0,0l-3,0c0,0 0,0 0,0l0,-15c0,-1 0,-1 0,-2c0,-1 1,-1 1,-2c1,0 1,0 2,-1c1,0 2,0 3,0l7,0zm-10,11l10,0c1,0 1,0 1,0c1,0 1,0 1,0c0,-1 1,-1 1,-1c0,-1 0,-1 0,-2l0,-2c0,-1 0,-1 0,-1c0,-1 -1,-1 -1,-1c0,0 0,-1 -1,-1c0,0 0,0 -1,0l-7,0c0,0 -1,0 -1,0c0,0 -1,1 -1,1c0,0 0,0 0,1c0,0 -1,0 -1,1l0,5zm31,-11c1,0 2,0 3,0c1,1 2,1 2,1c1,1 1,1 1,2c0,1 0,1 0,2l0,7c0,1 0,1 0,1c0,1 0,1 0,1c0,0 0,0 -1,0c0,0 0,0 0,0l-13,0c-1,0 -1,0 -2,0c0,0 -1,0 -1,-1c0,0 -1,0 -1,-1c0,0 0,-1 0,-1l0,-2c0,0 0,-1 0,-1c0,0 1,-1 1,-1c0,0 1,-1 1,-1c1,0 1,0 2,0l11,0l0,-1c0,0 0,0 0,-1c0,0 -1,0 -1,0c0,0 0,-1 -1,-1c0,0 -1,0 -1,0l-11,0c0,0 -1,0 -1,0l0,-3c0,0 1,0 1,0l11,0zm2,11c0,0 0,0 1,0c0,0 0,0 0,0l0,-3l-10,0c0,0 -1,0 -1,1c0,0 0,0 0,1l0,0c0,1 0,1 0,1c0,0 1,0 1,0l9,0zm21,-11c0,0 0,0 0,0l0,3c0,0 0,0 0,0l-7,0c-1,0 -1,0 -2,0c0,0 0,1 0,1c-1,0 -1,0 -1,1c0,0 0,0 0,1l0,8c0,0 0,0 -1,0l-2,0c-1,0 -1,0 -1,0l0,-9c0,-1 0,-1 0,-2c1,-1 1,-1 2,-2c0,0 1,0 1,-1c1,0 2,0 3,0l8,0zm5,0l0,-3c0,-1 0,-1 0,-1l3,0c0,0 0,0 0,1l0,3l5,0c0,0 0,0 0,0l0,3c0,0 0,0 0,0l-5,0l0,6c0,1 0,1 1,2c0,0 1,0 2,0l2,0c0,0 1,0 1,1l0,2c0,0 -1,0 -1,0l-3,0c-1,0 -2,0 -3,0c0,0 -1,0 -1,-1c-1,0 -1,-1 -1,-1c0,-1 0,-2 0,-3l0,-6l-3,0c0,0 0,0 0,0l0,-3c0,0 0,0 0,0l3,0zm27,0c1,0 1,0 1,0l0,3c0,0 0,0 -1,0l-12,0c0,0 0,0 -1,0c0,1 0,1 0,1l0,1c0,0 0,0 0,0c1,1 1,1 1,1l9,0c2,0 3,0 3,1c1,0 1,1 1,2l0,2c0,0 0,1 0,1c0,1 0,1 -1,1c0,1 0,1 -1,1c0,0 -1,0 -2,0l-13,0c-1,0 -1,0 -1,0l0,-2c0,-1 0,-1 1,-1l12,0c1,0 1,0 1,0c1,0 1,0 1,-1l0,-1c0,0 0,0 -1,0c0,-1 0,-1 -1,-1l-9,0c-1,0 -2,0 -3,-1c0,0 -1,-1 -1,-2l0,-1c0,-1 0,-1 1,-2c0,0 0,-1 0,-1c1,0 1,-1 2,-1c0,0 1,0 1,0l13,0z" class="fil1"/>
   </g>
  </g>
 </g>
</svg>