<?xml version="1.0" encoding="UTF-8"?>
<!DOCTYPE svg PUBLIC "-//W3C//DTD SVG 1.1//EN" "http://www.w3.org/Graphics/SVG/1.1/DTD/svg11.dtd">
<!-- Creator: CorelDRAW X8 -->
<svg xmlns="http://www.w3.org/2000/svg" xml:space="preserve" width="512px" height="512px" version="1.1" style="shape-rendering:geometricPrecision; text-rendering:geometricPrecision; image-rendering:optimizeQuality; fill-rule:evenodd; clip-rule:evenodd"
viewBox="0 0 512 512"
 xmlns:xlink="http://www.w3.org/1999/xlink">
 <defs>
  <style type="text/css">
   <![CDATA[
    .fil1 {fill:#373435;fill-rule:nonzero}
    .fil0 {fill:#ED3237;fill-rule:nonzero}
   ]]>
  </style>
 </defs>
 <g id="Слой_x0020_1">
  <metadata id="CorelCorpID_0Corel-Layer"/>
  <path class="fil0" d="M81 175l-19 0 0 12c0,1 -1,3 -1,4 -1,1 -3,1 -4,1l-5 0c-4,0 -7,-1 -9,-4 -2,-4 -2,-8 -2,-11 0,-4 0,-8 2,-11 2,-3 6,-5 10,-5l26 0 0 -14 -34 0c-2,0 -10,0 -15,4 -8,6 -9,16 -9,26 0,8 1,19 7,24 4,4 10,5 15,5l29 0c2,0 4,0 6,-2 1,0 3,-3 3,-7l0 -22z"/>
  <path class="fil0" d="M111 161c-7,0 -15,0 -20,4 -6,5 -6,14 -6,19 0,4 0,13 6,18 5,5 13,5 20,5 7,0 15,0 20,-5 6,-5 6,-14 6,-18 0,-5 0,-14 -6,-19 -5,-4 -13,-4 -20,-4zm-9 23c0,-5 1,-7 2,-8 0,-1 2,-3 7,-3 5,0 6,2 7,3 1,1 2,3 2,8 0,3 0,6 -2,8 -1,1 -3,3 -7,3 -5,0 -7,-3 -7,-3 -1,-1 -2,-3 -2,-8z"/>
  <path class="fil0" d="M158 206l12 0c5,0 12,0 16,-6 3,-5 3,-14 3,-18 0,-4 0,-11 -4,-16 -5,-4 -11,-5 -14,-5l-20 0c-3,0 -5,0 -7,2 -2,2 -3,4 -3,7l0 51 17 0 0 -15zm0 -12l0 -19c0,0 0,-1 0,-1 1,0 1,-1 2,-1l6 0c1,0 4,1 6,4 0,2 0,4 0,7 0,3 0,5 -1,7 0,1 -2,3 -6,3l-7 0z"/>
  <path class="fil0" d="M195 161l0 12 23 0c2,0 4,0 5,1 1,1 1,3 1,3l0 1 -20 0c-2,0 -5,0 -8,2 -3,3 -4,7 -4,11 0,4 1,10 4,13 2,2 6,2 8,2l27 0c2,0 5,0 8,-2 2,-2 2,-5 2,-7l0 -19c0,-4 -1,-9 -4,-13 -2,-2 -6,-4 -12,-4l-30 0zm29 28l0 3c0,0 0,1 -1,2 0,0 -1,0 -2,0l-9 0c-1,0 -2,0 -2,0 -1,-1 -1,-2 -1,-2 0,-1 0,-2 1,-3 1,0 2,0 2,0l12 0z"/>
  <path class="fil0" d="M246 206l17 0 0 -21c0,-3 0,-6 2,-9 2,-3 5,-3 8,-3 5,0 9,0 14,0l0 19c0,4 2,9 6,11 4,3 10,3 14,3 14,0 29,0 44,0 2,0 5,0 7,-2 3,-2 4,-6 4,-9 0,-2 0,-6 -3,-9 -2,-3 -5,-5 -10,-6l-11 -4c-2,-1 -2,-1 -4,-1 0,0 -1,-1 -1,-1 0,-1 1,-1 1,-1 1,0 1,0 2,0l25 0 0 -12 -31 0c-4,0 -8,1 -10,5 -2,2 -2,5 -2,8 0,2 0,5 2,7 1,3 5,5 9,6l10 3c3,2 4,2 5,2 0,0 0,1 0,1 0,1 0,1 0,1 0,0 -1,0 -1,0 -10,0 -19,0 -29,0 -2,0 -5,0 -7,-2 -3,-2 -3,-6 -3,-9l0 -10 12 0 0 -12 -12 0 0 -14 -17 0 0 14c-6,0 -13,0 -19,0 -4,0 -12,0 -17,5 -5,4 -5,10 -5,14l0 26z"/>
  <polygon class="fil0" points="384,206 384,191 368,191 368,206 "/>
  <path class="fil0" d="M393 161l0 12 23 0c2,0 4,0 5,1 1,1 1,3 1,3l0 1 -20 0c-3,0 -5,0 -8,2 -3,3 -4,7 -4,11 0,4 0,10 4,13 2,2 5,2 8,2l27 0c2,0 5,0 7,-2 2,-2 3,-5 3,-7l0 -19c0,-4 -1,-9 -5,-13 -2,-2 -5,-4 -11,-4l-30 0zm29 28l0 3c0,0 0,1 -1,2 0,0 -2,0 -2,0l-9 0c-1,0 -2,0 -2,0 -1,-1 -1,-2 -1,-2 0,-1 0,-2 1,-3 0,0 2,0 2,0l12 0z"/>
  <path class="fil0" d="M489 206l0 -12 -21 0c-3,0 -6,0 -8,-2 0,-1 -1,-2 -1,-3l25 0c1,0 3,-1 4,-2 3,-2 3,-5 3,-8 0,-5 0,-12 -5,-15 -3,-3 -9,-3 -18,-3 -9,0 -18,0 -22,4 -4,4 -3,11 -3,19 0,9 0,13 2,17 4,5 9,5 16,5l28 0zm-30 -28c0,-2 0,-4 2,-5 1,-1 4,-1 6,-1 1,0 3,0 4,1 3,0 3,1 3,3 0,0 0,2 -2,2l-13 0z"/>
  <path class="fil1" d="M197 223c0,0 0,0 0,1l0 7c0,1 0,1 1,2 0,0 0,0 0,0 0,1 0,1 1,1 0,0 1,0 1,0l7 0c0,0 1,0 1,0 1,0 1,0 1,-1 0,0 1,0 1,0 0,-1 0,-1 0,-2l0 -7c0,-1 0,-1 0,-1l3 0c0,0 0,0 0,1l0 8c0,1 0,2 0,3 0,0 0,1 -1,1 0,1 -1,1 -2,1 -1,0 -2,0 -3,0l-7 0c-1,0 -2,0 -3,0 -1,0 -1,0 -2,-1 0,0 -1,-1 -1,-1 0,-1 0,-2 0,-3l0 -8c0,-1 0,-1 0,-1l3 0zm36 0c1,0 1,0 1,0l0 3c0,0 0,0 -1,0l-12 0c0,0 0,0 -1,0 0,1 0,1 0,1l0 1c0,0 0,0 0,0 1,1 1,1 1,1l9 0c2,0 3,0 3,1 1,0 1,1 1,2l0 2c0,0 0,1 0,1 0,1 0,1 -1,1 0,1 0,1 -1,1 0,0 -1,0 -2,0l-13 0c0,0 -1,0 -1,0l0 -2c0,-1 1,-1 1,-1l12 0c1,0 1,0 1,0 1,0 1,0 1,-1l0 -1c0,0 0,0 -1,0 0,-1 0,-1 -1,-1l-9 0c-1,0 -2,0 -3,-1 0,0 -1,-1 -1,-2l0 -1c0,-1 0,-1 1,-2 0,0 0,-1 0,-1 1,0 1,-1 2,-1 0,0 1,0 1,0l13 0zm18 0c0,0 1,0 2,0 0,0 1,1 1,1 0,0 1,1 1,1 0,1 0,2 0,2l0 3c0,0 0,1 0,1 -1,0 -1,0 -1,0l-14 0 0 1c0,1 1,1 1,2 0,0 1,0 2,0l11 0c0,0 1,0 1,1l0 2c0,0 -1,0 -1,0l-11 0c-1,0 -2,0 -3,0 -1,0 -2,0 -2,-1 -1,0 -1,-1 -1,-1 0,-1 0,-2 0,-3l0 -4c0,-1 0,-1 0,-2 0,-1 0,-1 1,-2 0,0 1,0 2,-1 1,0 2,0 3,0l8 0zm-11 6l11 0c0,0 0,0 0,0l0 -2c0,0 0,-1 0,-1 0,0 -1,0 -1,0l-7 0c-1,0 -2,0 -2,0 0,1 -1,1 -1,2l0 1zm34 -6l0 -5c0,0 0,0 0,0l3 0c0,0 0,0 0,0l0 14c0,1 0,2 0,3 0,0 0,1 -1,1 0,1 -1,1 -2,1 -1,0 -2,0 -3,0l-7 0c-1,0 -2,0 -3,0 -1,0 -2,0 -2,-1 -1,0 -1,-1 -1,-1 0,-1 0,-2 0,-3l0 -4c0,-1 0,-1 0,-2 0,-1 0,-1 1,-2 0,0 1,0 2,-1 1,0 2,0 3,0l10 0zm-3 11c0,0 1,0 1,0 1,0 1,0 1,0 0,-1 0,-1 1,-1 0,-1 0,-1 0,-2l0 -5 -10 0c0,0 -1,0 -1,0 -1,0 -1,1 -1,1 0,0 0,0 -1,1 0,0 0,0 0,1l0 2c0,1 0,1 0,2 1,0 1,0 1,1 0,0 0,0 1,0 0,0 1,0 1,0l7 0zm35 -11c0,0 0,0 0,0l0 3c0,0 0,0 0,0l-12 0c0,0 -1,0 -1,0 0,1 0,1 0,1l0 1c0,0 0,0 0,0 0,1 1,1 1,1l9 0c1,0 3,0 3,1 1,0 1,1 1,2l0 2c0,0 0,1 0,1 0,1 0,1 -1,1 0,1 -1,1 -1,1 -1,0 -1,0 -2,0l-13 0c-1,0 -1,0 -1,0l0 -2c0,-1 0,-1 1,-1l12 0c1,0 1,0 1,0 0,0 0,0 0,-1l0 -1c0,0 0,0 0,0 0,-1 0,-1 -1,-1l-9 0c-1,0 -2,0 -3,-1 -1,0 -1,-1 -1,-2l0 -1c0,-1 0,-1 0,-2 0,0 1,-1 1,-1 0,0 1,-1 1,-1 1,0 1,0 2,0l13 0zm17 0c2,0 3,0 3,0 1,1 2,1 2,1 1,1 1,1 1,2 1,1 1,1 1,2l0 4c0,1 0,2 -1,3 0,0 0,1 -1,1 0,1 -1,1 -2,1 0,0 -1,0 -3,0l-9 0 0 6c0,0 -1,0 -1,0l-3 0c0,0 0,0 0,0l0 -15c0,-1 0,-1 0,-2 0,-1 1,-1 1,-2 1,0 1,0 2,-1 1,0 2,0 3,0l7 0zm-9 11l9 0c1,0 1,0 1,0 1,0 1,0 1,0 1,-1 1,-1 1,-1 0,-1 0,-1 0,-2l0 -2c0,-1 0,-1 0,-1 0,-1 0,-1 -1,-1 0,0 0,-1 -1,-1 0,0 0,0 -1,0l-7 0c0,0 -1,0 -1,0 0,0 -1,1 -1,1 0,0 0,0 0,1 0,0 0,0 0,1l0 5zm30 -11c1,0 2,0 3,0 1,1 2,1 2,1 1,1 1,1 1,2 0,1 1,1 1,2l0 7c0,1 0,1 -1,1 0,1 0,1 0,1 0,0 0,0 0,0 -1,0 -1,0 -1,0l-13 0c-1,0 -1,0 -2,0 0,0 -1,0 -1,-1 0,0 -1,0 -1,-1 0,0 0,-1 0,-1l0 -2c0,0 0,-1 0,-1 0,0 1,-1 1,-1 0,0 1,-1 1,-1 1,0 1,0 2,0l11 0 0 -1c0,0 0,0 0,-1 0,0 -1,0 -1,0 0,0 0,-1 -1,-1 0,0 0,0 -1,0l-11 0c0,0 0,0 0,0l0 -3c0,0 0,0 0,0l11 0zm2 11c0,0 1,0 1,0 0,0 0,0 0,0l0 -3 -10 0c0,0 -1,0 -1,1 0,0 0,0 0,1l0 0c0,1 0,1 0,1 0,0 1,0 1,0l9 0zm21 -11c0,0 0,0 0,0l0 3c0,0 0,0 0,0l-7 0c-1,0 -1,0 -2,0 0,0 0,1 0,1 -1,0 -1,0 -1,1 0,0 0,0 0,1l0 8c0,0 0,0 -1,0l-2 0c-1,0 -1,0 -1,0l0 -9c0,-1 0,-1 1,-2 0,-1 0,-1 1,-2 0,0 1,0 2,-1 0,0 1,0 3,0l7 0zm16 0c1,0 1,0 2,0 1,0 1,1 1,1 1,0 1,1 1,1 0,1 0,2 0,2l0 3c0,0 0,1 0,1 0,0 -1,0 -1,0l-13 0 0 1c0,1 0,1 0,2 1,0 1,0 2,0l11 0c1,0 1,0 1,1l0 2c0,0 0,0 -1,0l-11 0c-1,0 -2,0 -3,0 -1,0 -1,0 -2,-1 0,0 -1,-1 -1,-1 0,-1 0,-2 0,-3l0 -4c0,-1 0,-1 0,-2 0,-1 1,-1 1,-2 1,0 1,0 2,-1 1,0 2,0 3,0l8 0zm-10 6l10 0c0,0 1,0 1,0l0 -2c0,0 -1,-1 -1,-1 0,0 0,0 -1,0l-7 0c-1,0 -1,0 -2,0 0,1 0,1 0,2l0 1zm39 -6c1,0 2,0 3,0 1,1 2,1 2,1 1,1 1,1 1,2 0,1 1,1 1,2l0 4c0,1 -1,2 -1,3 0,0 0,1 -1,1 0,1 -1,1 -2,1 -1,0 -2,0 -3,0l-10 0 0 6c0,0 0,0 0,0l-3 0c0,0 0,0 0,0l0 -15c0,-1 0,-1 0,-2 0,-1 1,-1 1,-2 1,0 1,0 2,-1 1,0 2,0 3,0l7 0zm-10 11l10 0c1,0 1,0 1,0 1,0 1,0 1,0 0,-1 1,-1 1,-1 0,-1 0,-1 0,-2l0 -2c0,-1 0,-1 0,-1 0,-1 -1,-1 -1,-1 0,0 0,-1 -1,-1 0,0 0,0 -1,0l-7 0c0,0 -1,0 -1,0 0,0 -1,1 -1,1 0,0 0,0 0,1 0,0 -1,0 -1,1l0 5zm31 -11c1,0 2,0 3,0 1,1 2,1 2,1 1,1 1,1 1,2 0,1 0,1 0,2l0 7c0,1 0,1 0,1 0,1 0,1 0,1 0,0 0,0 -1,0 0,0 0,0 0,0l-13 0c-1,0 -1,0 -2,0 0,0 -1,0 -1,-1 0,0 -1,0 -1,-1 0,0 0,-1 0,-1l0 -2c0,0 0,-1 0,-1 0,0 1,-1 1,-1 0,0 1,-1 1,-1 1,0 1,0 2,0l11 0 0 -1c0,0 0,0 0,-1 0,0 -1,0 -1,0 0,0 0,-1 -1,-1 0,0 -1,0 -1,0l-11 0c0,0 -1,0 -1,0l0 -3c0,0 1,0 1,0l11 0zm2 11c0,0 0,0 1,0 0,0 0,0 0,0l0 -3 -10 0c0,0 -1,0 -1,1 0,0 0,0 0,1l0 0c0,1 0,1 0,1 0,0 1,0 1,0l9 0zm21 -11c0,0 0,0 0,0l0 3c0,0 0,0 0,0l-7 0c-1,0 -1,0 -2,0 0,0 0,1 0,1 -1,0 -1,0 -1,1 0,0 0,0 0,1l0 8c0,0 0,0 -1,0l-2 0c-1,0 -1,0 -1,0l0 -9c0,-1 0,-1 0,-2 1,-1 1,-1 2,-2 0,0 1,0 1,-1 1,0 2,0 3,0l8 0zm5 0l0 -3c0,-1 0,-1 0,-1l3 0c0,0 0,0 0,1l0 3 5 0c0,0 0,0 0,0l0 3c0,0 0,0 0,0l-5 0 0 6c0,1 0,1 1,2 0,0 1,0 2,0l2 0c0,0 1,0 1,1l0 2c0,0 -1,0 -1,0l-3 0c-1,0 -2,0 -3,0 0,0 -1,0 -1,-1 -1,0 -1,-1 -1,-1 0,-1 0,-2 0,-3l0 -6 -3 0c0,0 0,0 0,0l0 -3c0,0 0,0 0,0l3 0zm27 0c1,0 1,0 1,0l0 3c0,0 0,0 -1,0l-12 0c0,0 0,0 -1,0 0,1 0,1 0,1l0 1c0,0 0,0 0,0 1,1 1,1 1,1l9 0c2,0 3,0 3,1 1,0 1,1 1,2l0 2c0,0 0,1 0,1 0,1 0,1 -1,1 0,1 0,1 -1,1 0,0 -1,0 -2,0l-13 0c-1,0 -1,0 -1,0l0 -2c0,-1 0,-1 1,-1l12 0c1,0 1,0 1,0 1,0 1,0 1,-1l0 -1c0,0 0,0 -1,0 0,-1 0,-1 -1,-1l-9 0c-1,0 -2,0 -3,-1 0,0 -1,-1 -1,-2l0 -1c0,-1 0,-1 1,-2 0,0 0,-1 0,-1 1,0 1,-1 2,-1 0,0 1,0 1,0l13 0z"/>
 </g>
</svg>
