<svg xmlns="http://www.w3.org/2000/svg" width="13.688" height="16.312" viewBox="0 0 13.688 16.312">
  <metadata><?xpacket begin="﻿" id="W5M0MpCehiHzreSzNTczkc9d"?>
<x:xmpmeta xmlns:x="adobe:ns:meta/" x:xmptk="Adobe XMP Core 5.6-c138 79.159824, 2016/09/14-01:09:01        ">
   <rdf:RDF xmlns:rdf="http://www.w3.org/1999/02/22-rdf-syntax-ns#">
      <rdf:Description rdf:about=""/>
   </rdf:RDF>
</x:xmpmeta>
                                                                                                    
                                                                                                    
                                                                                                    
                                                                                                    
                                                                                                    
                                                                                                    
                                                                                                    
                                                                                                    
                                                                                                    
                                                                                                    
                                                                                                    
                                                                                                    
                                                                                                    
                                                                                                    
                                                                                                    
                                                                                                    
                                                                                                    
                                                                                                    
                                                                                                    
                                                                                                    
                           
<?xpacket end="w"?></metadata>
<defs>
    <style>
      .cls-1 {
        fill: #fe0000;
        fill-rule: evenodd;
      }
    </style>
  </defs>
  <path id="loaction" class="cls-1" d="M790.685,126.686a6.849,6.849,0,0,0-9.68,9.692l4.456,4.462a0.543,0.543,0,0,0,.768,0l4.456-4.462A6.859,6.859,0,0,0,790.685,126.686Zm-0.768,8.923-4.072,4.077-4.072-4.077A5.758,5.758,0,1,1,789.917,135.609Zm-2.026-6.7a0.409,0.409,0,0,0,0,.577,2.894,2.894,0,1,1-4.092,0,0.408,0.408,0,0,0-.577-0.577,3.709,3.709,0,1,0,5.245,0A0.406,0.406,0,0,0,787.891,128.907Z" transform="translate(-779 -124.688)"/>
</svg>
