<svg xmlns="http://www.w3.org/2000/svg" width="26.002" height="24.688" viewBox="0 0 26.002 24.688">
  <metadata><?xpacket begin="﻿" id="W5M0MpCehiHzreSzNTczkc9d"?>
<x:xmpmeta xmlns:x="adobe:ns:meta/" x:xmptk="Adobe XMP Core 5.6-c138 79.159824, 2016/09/14-01:09:01        ">
   <rdf:RDF xmlns:rdf="http://www.w3.org/1999/02/22-rdf-syntax-ns#">
      <rdf:Description rdf:about=""/>
   </rdf:RDF>
</x:xmpmeta>
                                                                                                    
                                                                                                    
                                                                                                    
                                                                                                    
                                                                                                    
                                                                                                    
                                                                                                    
                                                                                                    
                                                                                                    
                                                                                                    
                                                                                                    
                                                                                                    
                                                                                                    
                                                                                                    
                                                                                                    
                                                                                                    
                                                                                                    
                                                                                                    
                                                                                                    
                                                                                                    
                           
<?xpacket end="w"?></metadata>
<defs>
    <style>
      .cls-1 {
        fill: #b9b8b8;
        fill-rule: evenodd;
      }
    </style>
  </defs>
  <path id="location" class="cls-1" d="M1007.68,440.692l-6.89-2.434-6.106,2.377-6.109-2.377-6.885,2.434,3.669-8.289,3.334-1.28-0.079-.073a8.655,8.655,0,0,1-2.8-6.347,8.876,8.876,0,0,1,17.749,0,8.656,8.656,0,0,1-2.8,6.346l-0.08.074,3.33,1.28Zm-5.23-15.989a7.766,7.766,0,0,0-15.53,0,7.474,7.474,0,0,0,2.452,5.553l5.312,4.868,5.314-4.868A7.471,7.471,0,0,0,1002.45,424.7Zm-2.673,7.244-5.093,4.665-5.092-4.665-3.4,1.3-2.463,5.563,4.863-1.719,6.091,2.37,6.1-2.37,4.86,1.719-2.46-5.563Zm-5.093-2.349a4.9,4.9,0,1,1,4.992-4.9A4.949,4.949,0,0,1,994.684,429.6Zm0-8.7a3.808,3.808,0,1,0,3.882,3.807A3.85,3.85,0,0,0,994.684,420.9Z" transform="translate(-981.688 -416)"/>
</svg>
