<svg xmlns="http://www.w3.org/2000/svg" width="20.969" height="21.094" viewBox="0 0 20.969 21.094">
  <metadata><?xpacket begin="﻿" id="W5M0MpCehiHzreSzNTczkc9d"?>
<x:xmpmeta xmlns:x="adobe:ns:meta/" x:xmptk="Adobe XMP Core 5.6-c138 79.159824, 2016/09/14-01:09:01        ">
   <rdf:RDF xmlns:rdf="http://www.w3.org/1999/02/22-rdf-syntax-ns#">
      <rdf:Description rdf:about=""/>
   </rdf:RDF>
</x:xmpmeta>
                                                                                                    
                                                                                                    
                                                                                                    
                                                                                                    
                                                                                                    
                                                                                                    
                                                                                                    
                                                                                                    
                                                                                                    
                                                                                                    
                                                                                                    
                                                                                                    
                                                                                                    
                                                                                                    
                                                                                                    
                                                                                                    
                                                                                                    
                                                                                                    
                                                                                                    
                                                                                                    
                           
<?xpacket end="w"?></metadata>
<defs>
    <style>
      .cls-1 {
        fill: #fe0000;
        fill-rule: evenodd;
      }
    </style>
  </defs>
  <path id="My_orders" class="cls-1" d="M394.571,648.843a3.106,3.106,0,0,1-6.1,0h-7.428v-1h0.748c0.522,0,1.746-3.249,1.746-9.55a7.983,7.983,0,1,1,15.966,0c0,6.3,1.224,9.55,1.746,9.55H402v1h-7.429Zm-3.049,1.508a2.121,2.121,0,0,0,2.028-1.508H389.5A2.119,2.119,0,0,0,391.522,650.351Zm6.985-12.063a6.985,6.985,0,1,0-13.97,0c0,2.8-.341,7.506-1.478,9.55h16.926C398.848,645.794,398.507,641.089,398.507,638.288Z" transform="translate(-381.031 -630.25)"/>
</svg>
