<svg xmlns="http://www.w3.org/2000/svg" width="17.969" height="20.125" viewBox="0 0 17.969 20.125">
  <metadata><?xpacket begin="﻿" id="W5M0MpCehiHzreSzNTczkc9d"?>
<x:xmpmeta xmlns:x="adobe:ns:meta/" x:xmptk="Adobe XMP Core 5.6-c138 79.159824, 2016/09/14-01:09:01        ">
   <rdf:RDF xmlns:rdf="http://www.w3.org/1999/02/22-rdf-syntax-ns#">
      <rdf:Description rdf:about=""/>
   </rdf:RDF>
</x:xmpmeta>
                                                                                                    
                                                                                                    
                                                                                                    
                                                                                                    
                                                                                                    
                                                                                                    
                                                                                                    
                                                                                                    
                                                                                                    
                                                                                                    
                                                                                                    
                                                                                                    
                                                                                                    
                                                                                                    
                                                                                                    
                                                                                                    
                                                                                                    
                                                                                                    
                                                                                                    
                                                                                                    
                           
<?xpacket end="w"?></metadata>
<defs>
    <style>
      .cls-1 {
        fill: #292929;
        fill-rule: evenodd;
      }
    </style>
  </defs>
  <path id="Orders_hostory" class="cls-1" d="M399.006,606.738H384.038a1.5,1.5,0,0,1-1.5-1.508V588.141a1.5,1.5,0,0,1,1.5-1.508h14.968a1.5,1.5,0,0,1,1.5,1.508V605.23A1.5,1.5,0,0,1,399.006,606.738Zm0.5-18.6a0.5,0.5,0,0,0-.5-0.5H384.038a0.5,0.5,0,0,0-.5.5v13.571h15.966V588.141Zm0,14.576H383.539v2.513a0.5,0.5,0,0,0,.5.5h14.968a0.5,0.5,0,0,0,.5-0.5v-2.513Zm-8.981,1h2v1.006h-2v-1.006Zm6.985-10.052H385.535v-1h11.974v1Zm0,3.016H385.535v-1h11.974v1Zm0,3.016H385.535V598.7h11.974V599.7Zm-9.978-10.053h7.983v1h-7.983v-1Z" transform="translate(-382.531 -586.625)"/>
</svg>
