<svg xmlns="http://www.w3.org/2000/svg" width="17.125" height="17" viewBox="0 0 17.125 17">
  <metadata><?xpacket begin="﻿" id="W5M0MpCehiHzreSzNTczkc9d"?>
<x:xmpmeta xmlns:x="adobe:ns:meta/" x:xmptk="Adobe XMP Core 5.6-c138 79.159824, 2016/09/14-01:09:01        ">
   <rdf:RDF xmlns:rdf="http://www.w3.org/1999/02/22-rdf-syntax-ns#">
      <rdf:Description rdf:about=""/>
   </rdf:RDF>
</x:xmpmeta>
                                                                                                    
                                                                                                    
                                                                                                    
                                                                                                    
                                                                                                    
                                                                                                    
                                                                                                    
                                                                                                    
                                                                                                    
                                                                                                    
                                                                                                    
                                                                                                    
                                                                                                    
                                                                                                    
                                                                                                    
                                                                                                    
                                                                                                    
                                                                                                    
                                                                                                    
                                                                                                    
                           
<?xpacket end="w"?></metadata>
<defs>
    <style>
      .cls-1 {
        fill: #fe0000;
        fill-rule: evenodd;
      }
    </style>
  </defs>
  <path id="phone" class="cls-1" d="M1000.19,137.093l-3.814-2.534a0.62,0.62,0,0,0-.574-0.059,17.6,17.6,0,0,1-2.548.8,15.071,15.071,0,0,1-1.975-1.648,14.888,14.888,0,0,1-1.659-1.964,17.261,17.261,0,0,1,.808-2.532,0.6,0.6,0,0,0-.059-0.569l-2.55-3.791a0.617,0.617,0,0,0-.763-0.219,7.749,7.749,0,0,0-.866.452,7.828,7.828,0,0,0-1.449,1.131,2.878,2.878,0,0,0-.641.961,2.92,2.92,0,0,0-.2.812c0,0.007,0,.059,0,0.065,0,0.073-.009.144-0.009,0.215a4.386,4.386,0,0,0,.325,1.659A19.461,19.461,0,0,0,988.1,135.9c0.146,0.157.3,0.311,0.452,0.467s0.307,0.3.464,0.444a19.643,19.643,0,0,0,6.066,3.863,4.462,4.462,0,0,0,1.672.323c0.07,0,.139,0,0.209-0.008l0.071-.005a2.926,2.926,0,0,0,.817-0.2,2.886,2.886,0,0,0,.97-0.638,7.862,7.862,0,0,0,1.138-1.439,6.753,6.753,0,0,0,.452-0.858A0.6,0.6,0,0,0,1000.19,137.093Zm-1.283.979a6.521,6.521,0,0,1-.959,1.211,1.691,1.691,0,0,1-1.063.486,3,3,0,0,1-1.34-.228,18.372,18.372,0,0,1-5.689-3.621c-0.147-.138-0.294-0.278-0.435-0.417s-0.283-.288-0.422-0.436a18.224,18.224,0,0,1-3.646-5.651,3.163,3.163,0,0,1-.236-1.2c0-.045,0-0.09.007-0.161a1.712,1.712,0,0,1,.117-0.471,1.682,1.682,0,0,1,.372-0.556,6.475,6.475,0,0,1,1.219-.952c0.087-.052.174-0.1,0.263-0.151l2.071,3.079a18.9,18.9,0,0,0-.786,2.577,0.935,0.935,0,0,0,.162.715,16.147,16.147,0,0,0,1.866,2.223,16.358,16.358,0,0,0,2.287,1.887,0.914,0.914,0,0,0,.5.145,1.052,1.052,0,0,0,.227-0.029,18.794,18.794,0,0,0,2.543-.77l3.1,2.058C999.01,137.9,998.959,137.987,998.907,138.072Zm-0.531-11.467A8.923,8.923,0,0,0,992.045,124a0.459,0.459,0,1,0,0,.918,8.005,8.005,0,0,1,5.678,2.336,7.9,7.9,0,0,1,2.357,5.641,0.455,0.455,0,0,0,.46.458,0.462,0.462,0,0,0,.46-0.458A8.8,8.8,0,0,0,998.376,126.605Zm-6.329,1.4a4.9,4.9,0,0,1,3.474,1.43,4.835,4.835,0,0,1,1.441,3.454,0.462,0.462,0,0,0,.923,0,5.748,5.748,0,0,0-1.711-4.1,5.819,5.819,0,0,0-4.127-1.7h0a0.459,0.459,0,1,0,0,.917S992.045,128.009,992.047,128.01Z" transform="translate(-983.875 -124)"/>
</svg>
