<svg xmlns="http://www.w3.org/2000/svg" width="14" height="24" viewBox="0 0 14 24">
  <metadata><?xpacket begin="﻿" id="W5M0MpCehiHzreSzNTczkc9d"?>
<x:xmpmeta xmlns:x="adobe:ns:meta/" x:xmptk="Adobe XMP Core 5.6-c138 79.159824, 2016/09/14-01:09:01        ">
   <rdf:RDF xmlns:rdf="http://www.w3.org/1999/02/22-rdf-syntax-ns#">
      <rdf:Description rdf:about=""/>
   </rdf:RDF>
</x:xmpmeta>
                                                                                                    
                                                                                                    
                                                                                                    
                                                                                                    
                                                                                                    
                                                                                                    
                                                                                                    
                                                                                                    
                                                                                                    
                                                                                                    
                                                                                                    
                                                                                                    
                                                                                                    
                                                                                                    
                                                                                                    
                                                                                                    
                                                                                                    
                                                                                                    
                                                                                                    
                                                                                                    
                           
<?xpacket end="w"?></metadata>
<defs>
    <style>
      .cls-1 {
        fill: #b9b8b8;
        fill-rule: evenodd;
      }
    </style>
  </defs>
  <path id="Phone_regostration" class="cls-1" d="M1307.38,441H1296.6a1.624,1.624,0,0,1-1.61-1.637V418.625a1.624,1.624,0,0,1,1.61-1.637h10.78a1.624,1.624,0,0,1,1.61,1.637v20.734A1.624,1.624,0,0,1,1307.38,441Zm-11.31-1.637a0.539,0.539,0,0,0,.53.545h10.78a0.548,0.548,0,0,0,.54-0.545v-2.728h-11.85v2.728Zm11.85-3.82V421.353h-11.85v14.186h11.85Zm-0.54-17.46H1296.6a0.54,0.54,0,0,0-.53.546v1.637h11.85v-1.637A0.549,0.549,0,0,0,1307.38,418.079Zm-6.47,19.643h2.16v1.091h-2.16v-1.091Z" transform="translate(-1295 -417)"/>
</svg>
