<svg xmlns="http://www.w3.org/2000/svg" width="34" height="29" viewBox="0 0 34 29">
  <metadata><?xpacket begin="﻿" id="W5M0MpCehiHzreSzNTczkc9d"?>
<x:xmpmeta xmlns:x="adobe:ns:meta/" x:xmptk="Adobe XMP Core 5.6-c138 79.159824, 2016/09/14-01:09:01        ">
   <rdf:RDF xmlns:rdf="http://www.w3.org/1999/02/22-rdf-syntax-ns#">
      <rdf:Description rdf:about=""/>
   </rdf:RDF>
</x:xmpmeta>
                                                                                                    
                                                                                                    
                                                                                                    
                                                                                                    
                                                                                                    
                                                                                                    
                                                                                                    
                                                                                                    
                                                                                                    
                                                                                                    
                                                                                                    
                                                                                                    
                                                                                                    
                                                                                                    
                                                                                                    
                                                                                                    
                                                                                                    
                                                                                                    
                                                                                                    
                                                                                                    
                           
<?xpacket end="w"?></metadata>
<defs>
    <style>
      .cls-1 {
        fill: #fe0000;
        fill-rule: evenodd;
      }
    </style>
  </defs>
  <path id="Schedule" class="cls-1" d="M836.118,1699.21a0.408,0.408,0,0,0-.547.18c-0.2.41-.382,0.83-0.547,1.25a0.409,0.409,0,0,0,.233.53,0.391,0.391,0,0,0,.148.03,0.412,0.412,0,0,0,.382-0.26c0.157-.41.332-0.8,0.52-1.19A0.4,0.4,0,0,0,836.118,1699.21Zm3.3-4.36a0.408,0.408,0,0,0-.578,0,17.586,17.586,0,0,0-1.6,1.83,0.4,0.4,0,0,0,.081.57,0.389,0.389,0,0,0,.245.09,0.406,0.406,0,0,0,.328-0.17,16.467,16.467,0,0,1,1.526-1.74A0.41,0.41,0,0,0,839.416,1694.85Zm29.482,5.65a0.409,0.409,0,0,0-.416-0.13l-2.1.54a16.8,16.8,0,0,0-25.15-8.03,0.41,0.41,0,0,0-.108.57,0.422,0.422,0,0,0,.568.11,15.991,15.991,0,0,1,24.027,7.92h0c0,0.01,0,.02,0,0.03a0.421,0.421,0,0,0,.5.29l1.634-.43-2.575,5.72-5.064-3.73,1.748-.45a0.409,0.409,0,0,0,.292-0.5,0.08,0.08,0,0,0-.007-0.02,0.36,0.36,0,0,0-.018-0.07,12.319,12.319,0,1,0,.8,4.36c0-.08,0-0.16,0-0.24l2.178,1.6a0.44,0.44,0,0,0,.347.07,0.391,0.391,0,0,0,.27-0.23l3.133-6.95A0.4,0.4,0,0,0,868.9,1700.5Zm-18.243,17.68a11.5,11.5,0,1,1,10.666-15.95l-2.132.56a0.4,0.4,0,0,0-.3.32,0.4,0.4,0,0,0,.158.4l3.134,2.31c0.022,0.28.034,0.57,0.034,0.86A11.545,11.545,0,0,1,850.655,1718.18Zm5.873-16.71-4.237,3.37a2.442,2.442,0,0,0-1.636-.62,2.468,2.468,0,0,0-2.476,2.46,2.42,2.42,0,0,0,.3,1.18l-1.861,1.48a0.4,0.4,0,0,0-.064.57,0.409,0.409,0,0,0,.32.15,0.356,0.356,0,0,0,.255-0.09l1.859-1.47a2.477,2.477,0,0,0,4.138-1.82,2.431,2.431,0,0,0-.323-1.21l4.231-3.36A0.409,0.409,0,1,0,856.528,1701.47Zm-5.873,6.86a1.65,1.65,0,1,1,1.657-1.65A1.656,1.656,0,0,1,850.655,1708.33Zm0-10.11a0.405,0.405,0,0,0,.409-0.4v-1.28a0.41,0.41,0,1,0-.819,0v1.28A0.406,0.406,0,0,0,850.655,1698.22Zm-8.983,8.02h-1.283a0.405,0.405,0,1,0,0,.81h1.283A0.405,0.405,0,1,0,841.672,1706.24Zm8.873,8.93a0.414,0.414,0,0,0-.409.41v1.28a0.409,0.409,0,1,0,.818,0v-1.28A0.414,0.414,0,0,0,850.545,1715.17Zm10.266-8.82h-1.283a0.405,0.405,0,1,0,0,.81h1.283A0.405,0.405,0,1,0,860.811,1706.35Z" transform="translate(-835 -1690)"/>
</svg>
