<svg xmlns="http://www.w3.org/2000/svg" width="15" height="15" viewBox="0 0 15 15">
  <metadata><?xpacket begin="﻿" id="W5M0MpCehiHzreSzNTczkc9d"?>
<x:xmpmeta xmlns:x="adobe:ns:meta/" x:xmptk="Adobe XMP Core 5.6-c138 79.159824, 2016/09/14-01:09:01        ">
   <rdf:RDF xmlns:rdf="http://www.w3.org/1999/02/22-rdf-syntax-ns#">
      <rdf:Description rdf:about=""/>
   </rdf:RDF>
</x:xmpmeta>
                                                                                                    
                                                                                                    
                                                                                                    
                                                                                                    
                                                                                                    
                                                                                                    
                                                                                                    
                                                                                                    
                                                                                                    
                                                                                                    
                                                                                                    
                                                                                                    
                                                                                                    
                                                                                                    
                                                                                                    
                                                                                                    
                                                                                                    
                                                                                                    
                                                                                                    
                                                                                                    
                           
<?xpacket end="w"?></metadata>
<defs>
    <style>
      .cls-1 {
        fill: #292929;
        fill-rule: evenodd;
      }
    </style>
  </defs>
  <path id="sec_view" class="cls-1" d="M1515,347h5a1,1,0,0,1,1,1v5a1,1,0,0,1-1,1h-5a1,1,0,0,1-1-1v-5A1,1,0,0,1,1515,347Zm0,8h5a1,1,0,0,1,1,1v5a1,1,0,0,1-1,1h-5a1,1,0,0,1-1-1v-5A1,1,0,0,1,1515,355Zm8-8h5a1,1,0,0,1,1,1v5a1,1,0,0,1-1,1h-5a1,1,0,0,1-1-1v-5A1,1,0,0,1,1523,347Zm0,8h5a1,1,0,0,1,1,1v5a1,1,0,0,1-1,1h-5a1,1,0,0,1-1-1v-5A1,1,0,0,1,1523,355Z" transform="translate(-1514 -347)"/>
</svg>
