<svg id="Seller" xmlns="http://www.w3.org/2000/svg" width="46.844" height="48.094" viewBox="0 0 46.844 48.094">
  <metadata><?xpacket begin="﻿" id="W5M0MpCehiHzreSzNTczkc9d"?>
<x:xmpmeta xmlns:x="adobe:ns:meta/" x:xmptk="Adobe XMP Core 5.6-c138 79.159824, 2016/09/14-01:09:01        ">
   <rdf:RDF xmlns:rdf="http://www.w3.org/1999/02/22-rdf-syntax-ns#">
      <rdf:Description rdf:about=""/>
   </rdf:RDF>
</x:xmpmeta>
                                                                                                    
                                                                                                    
                                                                                                    
                                                                                                    
                                                                                                    
                                                                                                    
                                                                                                    
                                                                                                    
                                                                                                    
                                                                                                    
                                                                                                    
                                                                                                    
                                                                                                    
                                                                                                    
                                                                                                    
                                                                                                    
                                                                                                    
                                                                                                    
                                                                                                    
                                                                                                    
                           
<?xpacket end="w"?></metadata>
<defs>
    <style>
      .cls-1 {
        fill: #7fcba2;
      }

      .cls-1, .cls-2 {
        fill-rule: evenodd;
      }
    </style>
  </defs>
  <path id="Shape_26_copy" data-name="Shape 26 copy" class="cls-1" d="M875,443v-9l4-7,4,4v12h-8Zm-37-12,4-4,4,7v9h-8V431Z" transform="translate(-837 -395.906)"/>
  <path class="cls-2" d="M865.422,431.145a0.768,0.768,0,0,1,.766.77V432.8h3.274a1.1,1.1,0,0,1,1.1,1.106v3.844a1.1,1.1,0,0,1-1.1,1.1h-8.08a1.1,1.1,0,0,1-1.1-1.1V433.9a1.1,1.1,0,0,1,1.1-1.106h3.274v-0.882A0.768,0.768,0,0,1,865.422,431.145Zm-3.607,3.193v2.974h7.214v-2.974h-7.214Zm21.546,9.1a1.793,1.793,0,0,1-1.3.56h-43.28a1.792,1.792,0,0,1-1.3-.56,1.81,1.81,0,0,1-.489-1.148,1.412,1.412,0,0,1,0-.184l0.158-3.067a0.767,0.767,0,1,1,1.531.08l-0.159,3.067a0.259,0.259,0,0,0,.071.191,0.253,0.253,0,0,0,.186.08H844.7l0.274-5.821a10.378,10.378,0,0,0-2.174-6.862l-1.33-1.71-0.047.035-0.14.115c-0.058.049-.116,0.1-0.173,0.151-0.034.031-.069,0.062-0.1,0.094s-0.083.079-.123,0.119-0.051.052-.076,0.079a5.984,5.984,0,0,0-.4.456l-0.056.072c-0.039.051-.078,0.1-0.115,0.154l-0.039.054q-0.1.144-.2,0.294l-0.055.09c-0.03.049-.06,0.1-0.088,0.15l-0.062.112c-0.034.063-.067,0.126-0.1,0.19s-0.061.124-.09,0.187c-0.019.042-.038,0.085-0.056,0.128s-0.045.106-.067,0.159l-0.048.121c-0.033.088-.065,0.177-0.095,0.267-0.008.024-.015,0.049-0.023,0.074-0.024.075-.047,0.15-0.068,0.226-0.009.035-.019,0.069-0.028,0.1-0.02.075-.038,0.152-0.055,0.229l-0.018.076q-0.032.15-.057,0.3l-0.012.084c-0.012.079-.023,0.158-0.032,0.238,0,0.032-.008.064-0.011,0.1-0.01.1-.019,0.2-0.025,0.3,0,0,0,.009,0,0.013v0l-0.157,3.043a0.767,0.767,0,1,1-1.531-.08l0.157-3.047c0.006-.1.013-0.2,0.022-0.3l0.009-.083c0.006-.07.014-0.139,0.023-0.208,0-.033.008-0.066,0.013-0.1,0.009-.07.02-0.14,0.031-0.21,0-.026.008-0.052,0.013-0.078,0.016-.091.033-0.182,0.052-0.272,0.006-.031.014-0.063,0.021-0.1,0.013-.061.027-0.122,0.042-0.182,0.009-.037.018-0.074,0.028-0.111,0.015-.058.031-0.115,0.047-0.173,0.009-.033.019-0.067,0.029-0.1,0.025-.086.052-0.171,0.08-0.256,0-.014.009-0.027,0.014-0.04,0.026-.078.054-0.155,0.082-0.232l0.031-.081c0.025-.064.05-0.128,0.076-0.191l0.032-.075c0.032-.076.066-0.152,0.1-0.228l0.012-.026c0.042-.091.086-0.18,0.131-0.269l0,0c0.044-.085.089-0.17,0.136-0.253l0.017-.03q0.069-.121.141-0.24l0.006-.009a7.93,7.93,0,0,1,.517-0.742h0a7.809,7.809,0,0,1,.6-0.676l0,0c0.067-.067.134-0.132,0.2-0.2l0.024-.022c0.067-.062.135-0.123,0.2-0.182l0.012-.011c0.075-.064.15-0.126,0.228-0.187l0.011-.009c0.067-.053.135-0.1,0.2-0.155l0.073-.053c0.049-.036.1-0.07,0.149-0.105l0.091-.061,0.143-.092,0.092-.058,0.009-.006,0.01,0a7.455,7.455,0,0,1,1.921-.824l0.031-.007,9.064-2.282a2.136,2.136,0,0,1,1.753.368l1.269-.765L855.5,420.7a5.8,5.8,0,0,1-.6-0.513l-1.82-1.792a7.135,7.135,0,0,1-2.091-5.062v-0.1h-0.149a2.4,2.4,0,0,1-2.389-2.4v-2.362a2.4,2.4,0,0,1,.971-1.929v-3.06a7.572,7.572,0,0,1,7.545-7.582h6.945a7.572,7.572,0,0,1,7.545,7.582v3.028a2.4,2.4,0,0,1,1.015,1.961v2.362a2.4,2.4,0,0,1-1.149,2.051v1.571a3.93,3.93,0,0,1-3.516,3.928l-0.008.007-1.82,1.793a5.561,5.561,0,0,1-.64.542l0.225,2.118,1.268,0.765a2.134,2.134,0,0,1,1.754-.368l3.06,0.92a0.77,0.77,0,0,1-.338,1.5l-3.06-.921a0.621,0.621,0,0,0-.583.171c-0.063.065-.126,0.131-0.188,0.2q-0.153.162-.3,0.33l-0.055.063c-0.1.114-.2,0.229-0.288,0.345a8.188,8.188,0,0,1-6.418,3.092H860.37a8.211,8.211,0,0,1-1.1-.08l-0.116-.017c-0.116-.018-0.231-0.038-0.345-0.061a8.194,8.194,0,0,1-4.8-2.933q-0.14-.174-0.288-0.345l-0.055-.063q-0.145-.168-0.3-0.331c-0.061-.066-0.124-0.132-0.187-0.2a0.62,0.62,0,0,0-.583-0.171l-9.047,2.278a5.978,5.978,0,0,0-.743.258l1.2,1.544a11.92,11.92,0,0,1,2.5,7.883l-0.271,5.75h28.385l-0.271-5.75a11.93,11.93,0,0,1,2.5-7.883l1.2-1.544a6.02,6.02,0,0,0-.742-0.258l-2.787-.632a0.77,0.77,0,0,1,.337-1.5l2.8,0.635,0.031,0.008a7.447,7.447,0,0,1,1.922.824l0.009,0,0.008,0,0.1,0.061,0.138,0.089,0.094,0.063c0.049,0.033.1,0.068,0.145,0.1l0.076,0.055q0.1,0.075.2,0.153l0.014,0.011c0.077,0.061.152,0.123,0.227,0.187l0.013,0.011c0.069,0.06.136,0.12,0.2,0.182l0.024,0.022c0.068,0.064.136,0.13,0.2,0.2a0,0,0,0,1,0,0,7.806,7.806,0,0,1,1.266,1.673l0.01,0.018q0.147,0.261.275,0.534a0.011,0.011,0,0,0,0,.005c0.039,0.083.076,0.167,0.112,0.252l0.024,0.059c0.029,0.07.058,0.14,0.085,0.211l0.024,0.064c0.066,0.177.127,0.357,0.18,0.539q0.014,0.042.024,0.084c0.018,0.064.036,0.128,0.052,0.192,0.009,0.033.017,0.065,0.025,0.1,0.016,0.067.032,0.133,0.046,0.2l0.018,0.081c0.019,0.091.037,0.183,0.053,0.276,0,0.024.007,0.048,0.011,0.072,0.012,0.071.023,0.143,0.033,0.215,0,0.032.008,0.065,0.013,0.1,0.008,0.067.016,0.134,0.022,0.2,0,0.03.007,0.06,0.009,0.091,0.009,0.1.017,0.193,0.022,0.29h0l0.484,9.351c0,0.062,0,.123,0,0.184A1.815,1.815,0,0,1,883.361,443.44Zm-33.372-34.964v2.362a0.859,0.859,0,0,0,.856.86H851v-4.081h-0.15A0.858,0.858,0,0,0,849.989,408.476Zm19.934,3.222h0.165a0.859,0.859,0,0,0,.856-0.86v-2.362a0.858,0.858,0,0,0-.856-0.859h-0.165V411.7Zm-0.747-5.622h0.754v-2.589a6.034,6.034,0,0,0-6.013-6.041h-6.945a6.033,6.033,0,0,0-6.012,6.041v2.589h0.034v-0.012a0.774,0.774,0,0,1,.164-0.476,3.447,3.447,0,0,1,2.8-1.088c0.148,0,.295-0.006.439-0.006,0.472,0,.986.018,1.581,0.039s1.274,0.045,2.017.053c0.172,0,.346,0,0.526,0,0.57,0,1.113-.01,1.663-0.032,0.1,0,.2-0.009.3-0.016a7.69,7.69,0,0,0,1.6-.27,4.845,4.845,0,0,0,3.425-3.314,0.8,0.8,0,0,1,.1-0.2l0,0a0.069,0.069,0,0,1,.011-0.013,0.758,0.758,0,0,1,.736-0.3,0.794,0.794,0,0,1,.15.041q0.058,0.022.132,0.057l0.04,0.018,0.036,0.018c0.767,0.382,2.407,1.653,2.458,5.5h0Zm-3.8,12.552-1.892.187c-0.025,0-.05,0-0.075,0a0.768,0.768,0,0,1-.762-0.695,0.8,0.8,0,0,1,.01-0.22,4.134,4.134,0,0,1-2.236.644,3.713,3.713,0,0,1-3.625-2.414,1.256,1.256,0,0,1,1.2-1.627h4.857a1.256,1.256,0,0,1,1.2,1.627,3.1,3.1,0,0,1-.652,1.142l3.687-.363a5.618,5.618,0,0,0,1.279-3.579v-5.768c-0.018-.011-0.035-0.024-0.052-0.036l-0.007,0c-0.026-.018-0.051-0.037-0.076-0.056l0,0-0.073-.061,0,0c-0.024-.021-0.047-0.043-0.069-0.065l0,0-0.064-.069,0,0c-0.02-.023-0.04-0.048-0.059-0.072l0,0c-0.018-.025-0.036-0.05-0.053-0.076l0,0q-0.025-.039-0.048-0.078l0,0c-0.014-.027-0.028-0.053-0.041-0.08l0-.006c-0.012-.027-0.024-0.054-0.035-0.081a0.02,0.02,0,0,0,0-.008c-0.01-.027-0.02-0.054-0.029-0.081,0,0,0-.007,0-0.011-0.008-.027-0.016-0.053-0.023-0.08a0.083,0.083,0,0,1,0-.015c-0.007-.026-0.012-0.052-0.018-0.078,0-.007,0-0.013,0-0.02,0-.025-0.008-0.052-0.012-0.078l0-.022c0-.025,0-0.051-0.007-0.077l0-.025q0-.052,0-0.1a9.106,9.106,0,0,0-.21-2.061,4.014,4.014,0,0,0-.858-1.811c-0.869,1.779-2.657,3.567-6.333,3.709-0.568.022-1.132,0.033-1.721,0.033h-0.007c-0.983,0-1.837-.03-2.59-0.057-0.581-.021-1.083-0.038-1.527-0.038a3.184,3.184,0,0,0-1.873.343v0.316a0.779,0.779,0,0,1,.016.153v5.622a0.763,0.763,0,0,1-.016.153v0.713a5.585,5.585,0,0,0,1.631,3.962l1.82,1.791a4.04,4.04,0,0,0,.725.568l0.01,0.006a3.912,3.912,0,0,0,1.48.532l0.018,0c0.072,0.01.145,0.017,0.218,0.023l0.054,0c0.08,0,.16.009,0.24,0.009h3.443c0.079,0,.157,0,0.235-0.009l0.056,0q0.1-.007.2-0.021l0.03,0a3.847,3.847,0,0,0,1.22-.384h0c0.077-.039.154-0.081,0.229-0.126l0.01,0a4.1,4.1,0,0,0,.759-0.59Zm-2.968-2.58h-3.972A2.534,2.534,0,0,0,862.409,416.048Zm-7.211,8.84a6.67,6.67,0,0,0,4.467,2.476c0.082,0.009.164,0.014,0.246,0.02,0.044,0,.088.009,0.131,0.011,0.07,0,.14,0,0.21.006s0.114,0,.171,0a6.655,6.655,0,0,0,4.977-2.226c0.085-.094.167-0.191,0.248-0.291,0.035-.044.071-0.089,0.107-0.132l-1.3-.785a0.769,0.769,0,0,1-.368-0.579l-0.2-1.9a5.311,5.311,0,0,1-.817.206l-0.042.007c-0.052.009-.1,0.016-0.157,0.023l-0.094.012-0.13.013-0.136.01c-0.033,0-.066,0-0.1.006-0.08,0-.161.006-0.242,0.006h-3.443c-0.082,0-.163,0-0.244-0.006-0.035,0-.069,0-0.1-0.006l-0.133-.01-0.138-.015-0.089-.011c-0.056-.007-0.111-0.016-0.167-0.025l-0.042-.007a5.391,5.391,0,0,1-.842-0.217l-0.2,1.919a0.769,0.769,0,0,1-.368.579l-1.3.785C855.127,424.8,855.163,424.844,855.2,424.888Zm26.637,7.951c-0.006-.107-0.015-0.214-0.026-0.32,0-.03-0.006-0.06-0.01-0.09-0.009-.083-0.02-0.165-0.033-0.248,0-.025-0.007-0.05-0.011-0.075-0.017-.1-0.036-0.206-0.058-0.308,0-.022-0.011-0.044-0.015-0.066-0.019-.081-0.038-0.161-0.059-0.241-0.008-.032-0.017-0.064-0.026-0.095-0.022-.081-0.046-0.161-0.072-0.241l-0.018-.06c-0.031-.092-0.064-0.183-0.1-0.273l-0.045-.112c-0.022-.057-0.046-0.114-0.071-0.171-0.017-.039-0.034-0.079-0.052-0.118-0.035-.076-0.071-0.151-0.109-0.225-0.024-.05-0.05-0.1-0.076-0.146s-0.046-.084-0.07-0.125-0.054-.1-0.083-0.143-0.042-.069-0.064-0.1c-0.056-.09-0.115-0.178-0.176-0.264-0.017-.026-0.035-0.052-0.053-0.077-0.036-.049-0.073-0.1-0.11-0.146-0.021-.028-0.042-0.055-0.064-0.082-0.038-.048-0.076-0.1-0.116-0.143l-0.023-.027c-0.081-.095-0.165-0.187-0.252-0.277l-0.083-.085c-0.039-.039-0.078-0.078-0.118-0.115l-0.112-.1c-0.052-.047-0.105-0.093-0.16-0.139s-0.1-.081-0.148-0.121l-0.044-.034-1.331,1.71a10.383,10.383,0,0,0-2.174,6.862l0.275,5.822h5.913a0.253,0.253,0,0,0,.186-0.081,0.257,0.257,0,0,0,.07-0.191Zm-16.847-24.1a0.806,0.806,0,0,1,.8.808v0.648a0.8,0.8,0,1,1-1.608,0v-0.648A0.806,0.806,0,0,1,864.988,408.737ZM855.858,411a0.806,0.806,0,0,1-.8-0.808v-0.648a0.8,0.8,0,1,1,1.608,0v0.648A0.806,0.806,0,0,1,855.858,411Z" transform="translate(-837 -395.906)"/>
</svg>
