<svg xmlns="http://www.w3.org/2000/svg" width="22" height="17" viewBox="0 0 22 17">
  <metadata><?xpacket begin="﻿" id="W5M0MpCehiHzreSzNTczkc9d"?>
<x:xmpmeta xmlns:x="adobe:ns:meta/" x:xmptk="Adobe XMP Core 5.6-c138 79.159824, 2016/09/14-01:09:01        ">
   <rdf:RDF xmlns:rdf="http://www.w3.org/1999/02/22-rdf-syntax-ns#">
      <rdf:Description rdf:about=""/>
   </rdf:RDF>
</x:xmpmeta>
                                                                                                    
                                                                                                    
                                                                                                    
                                                                                                    
                                                                                                    
                                                                                                    
                                                                                                    
                                                                                                    
                                                                                                    
                                                                                                    
                                                                                                    
                                                                                                    
                                                                                                    
                                                                                                    
                                                                                                    
                                                                                                    
                                                                                                    
                                                                                                    
                                                                                                    
                                                                                                    
                           
<?xpacket end="w"?></metadata>
<defs>
    <style>
      .cls-1 {
        fill: #fff;
        fill-rule: evenodd;
      }
    </style>
  </defs>
  <path id="White_bakset" class="cls-1" d="M1128.82,569.6a1.7,1.7,0,1,1-1.75,1.7A1.733,1.733,0,0,1,1128.82,569.6Zm7.4,0a1.7,1.7,0,1,1-1.75,1.7A1.733,1.733,0,0,1,1136.22,569.6ZM1121.05,556h2.12a1.049,1.049,0,0,1,.99.7l3.51,10.182h9.71l2.11-6.119h-10.67a1.021,1.021,0,1,1,0-2.04h12.13a1.054,1.054,0,0,1,.85.424,1.009,1.009,0,0,1,.15.919l-2.82,8.159a1.041,1.041,0,0,1-.99.7h-11.23a1.054,1.054,0,0,1-1-.7l-3.51-10.182h-1.35A1.02,1.02,0,1,1,1121.05,556Z" transform="translate(-1120 -556)"/>
</svg>
